PathFileType	4	(X/Y/Z)	E:\Qualisys_Data\Carbon_Farble_Plate\Data\Amateur_Runner\S1\T1\S1T1V22_c3d.trc
DataRate	CameraRate	NumFrames	NumMarkers	Units	OrigDataRate	OrigDataStartFrame	OrigNumFrames
200.000000	200.000000	4	39	mm	200.000000	0	278
Frame#	Time	LSHO			RSHO			LICST			RICST			LASIS			LHEEL			RASIS			LTROC			RTROC			SACR			LTH1			LSK4			LTH2			LTH3			RHM5			LSK2			LTH4			RTH1			LTOE			RTH2			RTH3			RTH4			LLEP			RLEP			LSK1			LSK3			RSK1			LHM5			RSK2			LFT1			RSK3			RSK4			LLME			RLME			RTOE			RHEEL			RFT1			RFT2			LFT2			
		X1	Y1	Z1	X2	Y2	Z2	X3	Y3	Z3	X4	Y4	Z4	X5	Y5	Z5	X6	Y6	Z6	X7	Y7	Z7	X8	Y8	Z8	X9	Y9	Z9	X10	Y10	Z10	X11	Y11	Z11	X12	Y12	Z12	X13	Y13	Z13	X14	Y14	Z14	X15	Y15	Z15	X16	Y16	Z16	X17	Y17	Z17	X18	Y18	Z18	X19	Y19	Z19	X20	Y20	Z20	X21	Y21	Z21	X22	Y22	Z22	X23	Y23	Z23	X24	Y24	Z24	X25	Y25	Z25	X26	Y26	Z26	X27	Y27	Z27	X28	Y28	Z28	X29	Y29	Z29	X30	Y30	Z30	X31	Y31	Z31	X32	Y32	Z32	X33	Y33	Z33	X34	Y34	Z34	X35	Y35	Z35	X36	Y36	Z36	X37	Y37	Z37	X38	Y38	Z38	X39	Y39	Z39	

1	0	-2706.786865234375	1551.224609375	-522.4295654296875	-2785.552490234375	1532.380249023438	-210.0990753173828	-2741.75537109375	1072.493896484375	-518.3958740234375	-2754.923583984375	1085.7119140625	-223.9779663085938	-2702.213623046875	1028.797119140625	-494.4096984863281	-3321.39892578125	363.5305480957031	-434.3180541992188	-2716.681396484375	1039.239868164062	-232.0538330078125	-2831.19189453125	968.0460815429688	-539.1829833984375	-2813.520751953125	947.01806640625	-203.0010986328125	-2866.136962890625	1099.314575195312	-370.9607543945312	-2764.03662109375	786.0748291015625	-517.13134765625	-3202.418212890625	438.6443481445312	-462.9718017578125	-2839.51611328125	808.8851928710938	-543.5775756835938	-2800.445068359375	688.975830078125	-503.4598388671875	-2364.721923828125	155.3267211914062	-218.84130859375	-3121.94287109375	491.5339050292969	-501.4249267578125	-2878.1044921875	717.4600219726562	-521.7077026367188	-2641.64453125	871.587646484375	-223.3728942871094	-3232.659912109375	123.3690872192383	-422.1701354980469	-2707.4736328125	832.8338012695312	-198.0206298828125	-2592.478759765625	781.3645629882812	-227.6170196533203	-2664.951416015625	744.4894409179688	-215.5354614257812	-2915.530517578125	563.4893798828125	-491.9118957519531	-2573.7998046875	601.6522216796875	-246.6139526367188	-3077.182373046875	421.42041015625	-495.5020751953125	-3165.8994140625	372.0568237304688	-488.4592590332031	-2539.759765625	412.6391296386719	-222.7794342041016	-3277.173828125	169.3928375244141	-480.5739135742188	-2617.440185546875	395.1205444335938	-243.9488067626953	-3337.681884765625	346.6275634765625	-401.9809875488281	-2513.3134765625	316.2335510253906	-236.1070709228516	-2588.302001953125	300.9868774414062	-267.3716430664062	-3280.50732421875	325.2696838378906	-480.48681640625	-2505.49365234375	175.9948577880859	-244.1989135742188	-2307.875	209.4950256347656	-289.25537109375	-2547.021728515625	114.2830047607422	-293.2112426757812	-2522.64697265625	95.64404296875	-325.6620178222656	-2531.8095703125	91.4947509765625	-267.2412414550781	-3347.201904296875	344.0640563964844	-455.0712585449219
2	0.005	-2685.436279296875	1551.956909179688	-520.9934692382812	-2763.252685546875	1531.515014648438	-208.0471038818359	-2720.1875	1073.107666015625	-518.3936157226562	-2732.73779296875	1085.701538085938	-223.5984344482422	-2680.451904296875	1029.638427734375	-494.4338684082031	-3301.925048828125	373.4756164550781	-433.2847595214844	-2694.349365234375	1039.159790039062	-232.2091827392578	-2808.48583984375	967.9281005859376	-539.0469970703125	-2791.5888671875	946.1295166015624	-203.619140625	-2844.712890625	1099.109741210938	-370.975341796875	-2739.653076171875	786.2835083007812	-515.4484252929688	-3180.5751953125	445.7485656738281	-462.6465759277344	-2814.985595703125	807.8358154296875	-543.1995849609375	-2775.487548828125	688.973876953125	-502.3621520996094	-2333.578125	158.0431976318359	-218.4732666015625	-3098.826171875	496.2227478027344	-501.5453186035156	-2853.10107421875	716.1060791015625	-521.5015869140625	-2621.6708984375	867.0699462890625	-223.8013610839844	-3216.314697265625	131.0961456298828	-420.6028747558594	-2689.395751953125	830.0462036132812	-197.3789367675781	-2575.56005859375	776.0079345703125	-229.0942840576172	-2647.28857421875	739.8967895507812	-214.7189025878906	-2889.881103515625	562.1821899414062	-492.02294921875	-2557.43359375	597.395751953125	-247.4777679443359	-3055.869873046875	424.8659973144531	-494.5131530761719	-3146.374755859375	379.4274291992188	-488.2689819335938	-2517.900634765625	410.8947143554688	-221.5336608886719	-3261.675048828125	178.399169921875	-478.669677734375	-2595.300537109375	391.867431640625	-243.5925445556641	-3318.462646484375	357.1339416503906	-400.72216796875	-2489.391845703125	315.1007080078125	-235.6511688232422	-2562.647705078125	298.0265808105469	-266.4193115234375	-3261.912353515625	334.1319274902344	-479.7236328125	-2476.16796875	175.2763671875	-242.5128173828125	-2280.162353515625	214.5380401611328	-289.1278381347656	-2516.08056640625	111.9027328491211	-290.9259643554688	-2491.726806640625	94.55448150634766	-323.8955688476562	-2499.93603515625	90.13092803955078	-265.4366149902344	-3328.7333984375	355.0094299316406	-454.2757568359375
3	0.01	-2663.55322265625	1552.603393554688	-518.9407958984375	-2741.30322265625	1531.220092773438	-206.1986389160156	-2699.384521484375	1074.296508789062	-519.0213012695312	-2711.785400390625	1085.619018554688	-223.2183990478516	-2658.40234375	1030.638305664062	-494.2151489257812	-3281.342529296875	383.7927551269531	-432.4124755859375	-2672.857177734375	1038.599487304688	-231.8703460693359	-2785.953125	967.1941528320312	-539.177001953125	-2770.565673828125	944.7141723632812	-204.3589935302734	-2823.2861328125	1098.4755859375	-370.7245178222656	-2715.520751953125	786.2279663085938	-514.5203247070312	-3158.1796875	452.9329833984375	-462.0868835449219	-2790.792724609375	807.2106323242188	-542.9107666015625	-2749.98046875	688.4317626953125	-501.6211242675781	-2305.166015625	161.0241241455078	-218.3306884765625	-3074.55712890625	500.2664184570312	-500.883544921875	-2828.246826171875	715.0773315429688	-521.6336669921875	-2601.612548828125	861.9412841796875	-224.2390594482422	-3201.728515625	139.9585723876953	-416.908203125	-2668.959716796875	826.2449340820312	-195.7311096191406	-2557.9853515625	769.4411010742188	-229.8290252685547	-2629.890625	735.3018188476562	-212.7237243652344	-2864.410400390625	560.6058349609375	-492.17822265625	-2540.02880859375	593.3109130859375	-248.0780181884766	-3034.39306640625	428.1103820800781	-494.3334045410156	-3125.411376953125	384.6780700683594	-487.9859008789062	-2496.572998046875	409.9688720703125	-221.7872772216797	-3245.92578125	188.4303283691406	-476.92138671875	-2573.5908203125	389.0232238769531	-243.5505981445312	-3297.9814453125	368.0745544433594	-399.4463195800781	-2465.10302734375	315.2218017578125	-234.8485412597656	-2538.43017578125	295.5091857910156	-264.9244079589844	-3241.801513671875	343.754638671875	-478.334716796875	-2448.767578125	174.7669830322266	-241.0931243896484	-2253.375244140625	218.7090301513672	-289.4428100585938	-2487.783203125	110.8583297729492	-289.6515808105469	-2462.74365234375	93.55341339111328	-321.7814331054688	-2470.220947265625	88.96647644042969	-262.80859375	-3308.543212890625	365.653076171875	-453.6756591796875
4	0.015	-2641.35498046875	1552.396606445312	-516.9435424804688	-2719.620361328125	1530.231079101562	-205.0612945556641	-2678.1357421875	1074.034057617188	-519.104736328125	-2690.4892578125	1084.576171875	-223.3079071044922	-2636.264404296875	1030.88232421875	-494.6003112792969	-3259.95166015625	394.3616943359375	-432.0719604492188	-2650.253173828125	1038.8720703125	-231.8584442138672	-2763.703369140625	966.7362670898438	-539.7493286132812	-2747.58203125	943.2987670898438	-203.9995269775391	-2801.882080078125	1097.1552734375	-370.5066528320312	-2690.67529296875	785.6409301757812	-513.7645263671875	-3135.889404296875	459.9185180664062	-462.9898986816406	-2765.413818359375	805.0287475585938	-542.0570068359375	-2724.18505859375	687.7899780273438	-500.4632568359375	-2278.581298828125	163.1743316650391	-218.1007690429688	-3049.781005859375	504.3135375976562	-499.9620666503906	-2802.97265625	713.6787109375	-522.0553588867188	-2581.2265625	856.3988037109375	-224.0863952636719	-3184.888916015625	148.6020965576172	-414.7154846191406	-2650.0751953125	823.0493774414062	-195.1679992675781	-2540.907958984375	763.4019165039062	-230.7212677001953	-2611.900634765625	730.949951171875	-211.1755218505859	-2837.804443359375	558.3170776367188	-491.653564453125	-2523.026123046875	589.7228393554688	-248.0360260009766	-3011.468994140625	430.4712524414062	-493.4714050292969	-3104.87060546875	390.7113952636719	-486.9743041992188	-2474.645263671875	408.5743713378906	-221.4550476074219	-3228.022216796875	196.8771667480469	-475.2893676757812	-2551.6884765625	386.0592346191406	-242.7804107666016	-3276.03955078125	378.6656494140625	-397.5244445800781	-2441.389404296875	314.3644714355469	-234.7185668945312	-2514.859130859375	293.1270141601562	-264.2862854003906	-3221.010009765625	352.2659606933594	-476.6936645507812	-2422.4697265625	174.4029998779297	-239.9499664306641	-2228.69287109375	221.98388671875	-289.9926147460938	-2460.154541015625	108.849365234375	-287.152099609375	-2436.04248046875	92.60530090332033	-320.6447448730469	-2442.572021484375	87.12079620361328	-262.2379455566406	-3287.191650390625	376.3302917480469	-451.6052856445312
